<svg aria-hidden="true" style="position:absolute;width:0;height:0;overflow:hidden" xmlns="http://www.w3.org/2000/svg">
  <defs>
    <symbol id="icon-facebook" viewBox="0 0 32 32">
      <path d="M21.329 5.313h2.921V.225C23.746.156 22.013 0 19.994 0c-4.212 0-7.097 2.649-7.097 7.519V12H8.249v5.688h4.648V32h5.699V17.689h4.46l.708-5.688h-5.169V8.082c.001-1.644.444-2.769 2.735-2.769z"/>
    </symbol>
    <symbol id="icon-instagram" viewBox="0 0 32 32">
      <path d="M31.969 9.408c-.075-1.7-.35-2.869-.744-3.882a7.806 7.806 0 0 0-1.851-2.838A7.867 7.867 0 0 0 26.542.844C25.523.45 24.36.175 22.66.1 20.947.019 20.403 0 16.059 0s-4.888.019-6.595.094c-1.7.075-2.869.35-3.882.744a7.803 7.803 0 0 0-2.838 1.85A7.867 7.867 0 0 0 .9 5.52C.506 6.539.231 7.702.156 9.402c-.081 1.713-.1 2.257-.1 6.601s.019 4.888.094 6.595c.075 1.7.35 2.869.744 3.882a7.895 7.895 0 0 0 1.85 2.838 7.867 7.867 0 0 0 2.832 1.844c1.019.394 2.182.669 3.882.744 1.706.075 2.25.094 6.595.094s4.888-.019 6.595-.094c1.7-.075 2.869-.35 3.882-.744a8.184 8.184 0 0 0 4.682-4.682c.394-1.019.669-2.182.744-3.882.075-1.707.094-2.251.094-6.595s-.006-4.888-.081-6.595zm-2.882 13.065c-.069 1.563-.331 2.407-.55 2.969a5.31 5.31 0 0 1-3.038 3.038c-.563.219-1.413.481-2.969.55-1.688.075-2.194.094-6.464.094s-4.782-.019-6.464-.094c-1.563-.069-2.407-.331-2.969-.55a4.926 4.926 0 0 1-1.838-1.194 4.974 4.974 0 0 1-1.194-1.838c-.219-.563-.481-1.413-.55-2.969-.075-1.688-.094-2.194-.094-6.464s.019-4.782.094-6.464c.069-1.563.331-2.407.55-2.969a4.868 4.868 0 0 1 1.2-1.838A4.974 4.974 0 0 1 6.639 3.55c.563-.219 1.413-.481 2.969-.55 1.688-.075 2.194-.094 6.464-.094 4.276 0 4.782.019 6.464.094 1.563.069 2.407.331 2.969.55a4.914 4.914 0 0 1 1.838 1.194 4.974 4.974 0 0 1 1.194 1.838c.219.563.481 1.413.55 2.969.075 1.688.094 2.194.094 6.464s-.019 4.77-.094 6.458z"/>
      <path d="M16.059 7.783c-4.538 0-8.22 3.682-8.22 8.22s3.682 8.22 8.22 8.22c4.539 0 8.22-3.682 8.22-8.22s-3.682-8.22-8.22-8.22zm0 13.552a5.333 5.333 0 0 1 0-10.664 5.333 5.333 0 0 1 0 10.664zM26.524 7.458a1.919 1.919 0 1 1-3.838 0 1.919 1.919 0 0 1 3.838 0z"/>
    </symbol>
    <symbol id="icon-linkedin" viewBox="0 0 32 32">
      <path d="M31.992 32v-.001H32V20.263c0-5.741-1.236-10.164-7.948-10.164-3.227 0-5.392 1.771-6.276 3.449h-.093v-2.913h-6.364v21.364h6.627V21.42c0-2.785.528-5.479 3.977-5.479 3.399 0 3.449 3.179 3.449 5.657v10.401h6.62zM.528 10.636h6.635V32H.528V10.636zM3.843 0C1.722 0 0 1.721 0 3.843s1.721 3.879 3.843 3.879c2.121 0 3.843-1.757 3.843-3.879A3.846 3.846 0 0 0 3.843 0z"/>
    </symbol>
    <symbol id="icon-twitter" viewBox="0 0 32 32">
      <path d="M32 6.078c-1.19.522-2.458.868-3.78 1.036a6.523 6.523 0 0 0 2.886-3.626 13.11 13.11 0 0 1-4.16 1.588A6.574 6.574 0 0 0 22.154 3c-3.632 0-6.556 2.948-6.556 6.562 0 .52.044 1.02.152 1.496-5.454-.266-10.28-2.88-13.522-6.862a6.605 6.605 0 0 0-.898 3.316 6.57 6.57 0 0 0 2.914 5.452 6.479 6.479 0 0 1-2.964-.808v.072c0 3.188 2.274 5.836 5.256 6.446a6.548 6.548 0 0 1-1.72.216 5.8 5.8 0 0 1-1.242-.112c.85 2.598 3.262 4.508 6.13 4.57a13.182 13.182 0 0 1-8.134 2.798c-.538 0-1.054-.024-1.57-.09A18.469 18.469 0 0 0 10.064 29c12.072 0 18.672-10 18.672-18.668 0-.29-.01-.57-.024-.848A13.087 13.087 0 0 0 32 6.078z"/>
    </symbol>
    <symbol id="icon-author_protect" viewBox="0 0 32 32">
<path d="M15.238 0.015c-3.635 0.193-6.955 1.525-9.713 3.895-0.362 0.313-1.15 1.090-1.482 1.465-0.94 1.065-1.688 2.162-2.317 3.412-0.935 1.85-1.46 3.688-1.667 5.825-0.060 0.63-0.060 2.145 0 2.775 0.208 2.137 0.733 3.975 1.667 5.825 0.803 1.59 1.777 2.922 3.065 4.188 1.197 1.177 2.44 2.078 3.895 2.828 1.873 0.96 3.755 1.505 5.928 1.715 0.63 0.060 2.145 0.060 2.775 0 2.172-0.21 4.055-0.755 5.927-1.715 1.455-0.75 2.697-1.65 3.895-2.828 1.288-1.265 2.262-2.598 3.065-4.188 0.935-1.85 1.46-3.688 1.668-5.825 0.060-0.63 0.060-2.145 0-2.775-0.207-2.138-0.733-3.975-1.668-5.825-0.802-1.59-1.777-2.922-3.065-4.188-0.823-0.81-1.518-1.37-2.448-1.982-2.22-1.455-4.668-2.305-7.35-2.555-0.405-0.037-1.79-0.068-2.175-0.048zM17.038 3.313c0.793 0.067 1.378 0.165 2.095 0.348 4.238 1.077 7.63 4.258 8.98 8.415 0.648 1.995 0.788 4.195 0.4 6.282-0.843 4.543-4.168 8.32-8.588 9.755-1.995 0.648-4.195 0.788-6.282 0.4-4.543-0.843-8.32-4.168-9.755-8.587-0.647-1.995-0.788-4.195-0.4-6.282 0.73-3.935 3.355-7.362 6.978-9.107 1.432-0.69 2.945-1.098 4.572-1.232 0.425-0.035 1.543-0.030 2 0.010z"></path>
<path d="M15.275 7.125c-0.398 0.032-0.95 0.115-1.338 0.2-2.863 0.638-5.275 2.698-6.367 5.435-0.768 1.93-0.843 4.092-0.205 6.068 0.8 2.485 2.643 4.5 5.063 5.53 1.203 0.512 2.513 0.745 3.897 0.688 3.22-0.128 6.155-2.035 7.613-4.947 0.285-0.565 0.525-1.205 0.663-1.747 0.027-0.117 0.058-0.233 0.065-0.258 0.012-0.040-0.1-0.043-2.125-0.043h-2.137l-0.13 0.253c-0.848 1.65-2.523 2.675-4.367 2.672-1.348-0.003-2.58-0.527-3.518-1.505-0.725-0.753-1.17-1.663-1.322-2.697-0.050-0.337-0.053-1.025-0.002-1.367 0.283-1.982 1.738-3.598 3.675-4.075 0.66-0.165 1.415-0.182 2.1-0.053 0.335 0.063 0.845 0.227 1.163 0.377 0.922 0.432 1.77 1.24 2.218 2.107l0.095 0.188 2.157 0.005c1.525 0.005 2.155 0 2.155-0.020 0-0.050-0.145-0.545-0.238-0.81-0.255-0.725-0.555-1.33-1-2-0.337-0.508-0.62-0.86-1.035-1.283-0.512-0.525-0.957-0.895-1.497-1.25-1.203-0.793-2.477-1.255-3.938-1.433-0.38-0.045-1.26-0.065-1.643-0.035z"></path>
</symbol>
<symbol id="icon-email-black" viewBox="0 0 32 32">
<path d="M26.667 5.333h-21.333c-1.467 0-2.653 1.2-2.653 2.667l-0.013 16c0 1.467 1.2 2.667 2.667 2.667h21.333c1.467 0 2.667-1.2 2.667-2.667v-16c0-1.467-1.2-2.667-2.667-2.667zM26.133 11l-9.427 5.893c-0.427 0.267-0.987 0.267-1.413 0l-9.427-5.893c-0.333-0.213-0.533-0.573-0.533-0.96 0-0.893 0.973-1.427 1.733-0.96l8.933 5.587 8.933-5.587c0.76-0.467 1.733 0.067 1.733 0.96 0 0.387-0.2 0.747-0.533 0.96z"></path>
</symbol>
<symbol id="icon-burger-menu" viewBox="0 0 32 32">
<path d="M6.4 11.733v-2.133h19.2v2.133h-19.2zM6.4 17.067h19.2v-2.133h-19.2v2.133zM6.4 22.4h19.2v-2.133h-19.2v2.133z"></path>
</symbol>
<symbol id="icon-close-mobmenu" viewBox="0 0 32 32">
<path d="M23.733 10.304l-1.504-1.504-5.963 5.963-5.963-5.963-1.504 1.504 5.963 5.963-5.963 5.963 1.504 1.504 5.963-5.963 5.963 5.963 1.504-1.504-5.963-5.963 5.963-5.963z"></path>
</symbol>
  </defs>
</svg>






